<svg xmlns="http://www.w3.org/2000/svg" viewBox="0 0 452.14 131.53"><defs><style>.cls-1{fill:#fff;}.cls-2{fill:none;stroke:#fff;stroke-miterlimit:10;stroke-width:4px;}</style></defs><g id="katman_2" data-name="katman 2"><g id="logo_ve_slogan"><polygon class="cls-1" points="55.96 36.86 89.58 2.13 89.58 126.8 55.96 126.8 55.96 36.86"/><polygon class="cls-1" points="29.09 80.08 54.29 62.18 54.29 127.96 29.09 128.89 29.09 80.08"/><polygon class="cls-1" points="154.53 80.75 129.32 63.13 129.32 119.82 154.53 121.45 154.53 80.75"/><polygon class="cls-2" points="126.14 29.04 92.53 3.99 92.63 124.7 126.14 121.92 126.14 29.04"/><polygon class="cls-1" points="97.72 18.81 120.27 34.3 120.27 43.37 97.72 28.6 97.72 18.81"/><polygon class="cls-1" points="97.72 31.98 120.27 47.47 120.27 56.55 97.72 41.77 97.72 31.98"/><polygon class="cls-1" points="97.72 45.16 120.27 60.64 120.27 69.72 97.72 54.95 97.72 45.16"/><polygon class="cls-1" points="97.72 58.33 120.27 73.82 120.27 82.89 97.72 68.12 97.72 58.33"/><polygon class="cls-1" points="97.72 71.51 120.27 86.99 120.27 96.07 97.72 81.29 97.72 71.51"/><polygon class="cls-1" points="97.72 84.68 120.27 100.17 120.27 109.24 97.72 94.47 97.72 84.68"/><polygon class="cls-1" points="97.72 97.85 120.27 113.34 120.27 122.41 97.72 107.64 97.72 97.85"/><polygon class="cls-1" points="97.72 111.03 110.68 119.78 111.56 124.68 97.72 120.81 97.72 111.03"/><path class="cls-1" d="M0,124.94s.72.1,2.06.25,3.32.38,5.83.63,5.56.45,9.06.65,7.44.25,11.74.25c9.83,0,19.61-.73,29.41-1.54q4-.36,8.19-.81l8.39-.93,17.13-2c5.74-.63,11.47-1.28,17.12-1.78,2.82-.26,5.63-.49,8.39-.68s5.51-.34,8.2-.47a236.42,236.42,0,0,1,29.4.6c4.31.42,8.25,1,11.75,1.63s6.54,1.3,9.05,1.92,4.49,1.22,5.83,1.61,2.06.66,2.06.66-.71-.1-2.06-.26-3.32-.37-5.83-.62-5.55-.45-9.05-.65-7.44-.25-11.75-.24c-9.83,0-19.61.72-29.4,1.54-2.69.23-5.43.51-8.2.81s-5.57.6-8.39.92l-17.12,2c-5.74.64-11.48,1.28-17.13,1.78q-4.23.39-8.39.67t-8.19.47a232.74,232.74,0,0,1-29.41-.6c-4.3-.42-8.25-1-11.74-1.62s-6.55-1.3-9.06-1.92S3.41,126,2.06,125.59Z"/><path class="cls-1" d="M189.77,49.4l-2.46,8.93h-5.76L191,26H198l9.36,32.35h-5.94l-2.57-8.93Zm8.28-4.33-2.19-7.81c-.55-2-1.06-4.47-1.5-6.47h-.12c-.43,2-.93,4.51-1.44,6.46l-2.18,7.82Z"/><path class="cls-1" d="M211.7,58.33V26h6.15l7.48,13.86a102.21,102.21,0,0,1,5,10.67l.11,0c-.37-4.26-.53-8.67-.53-13.87V26h5.18V58.33h-5.71l-7.55-14.09a105.09,105.09,0,0,1-5.12-10.9l-.14,0c.24,4.06.34,8.43.34,14.16V58.33Z"/><path class="cls-1" d="M247.42,49.4,245,58.33h-5.77L248.62,26h7.06l9.37,32.35H259.1l-2.56-8.93Zm8.28-4.33-2.2-7.81c-.55-2-1.05-4.47-1.5-6.47h-.11c-.44,2-.93,4.51-1.45,6.46l-2.17,7.82Z"/><path class="cls-1" d="M272.22,58.33V45l-9.3-19h6.37l3.45,8.18c1,2.31,1.78,4.34,2.58,6.6h.09c.72-2.16,1.57-4.28,2.53-6.66L281.35,26h6.27L277.9,44.84V58.33Z"/><path class="cls-1" d="M296.51,26v19.6c0,6,2.33,8.56,5.75,8.56,3.64,0,5.89-2.54,5.89-8.56V26h5.68V45.05c0,9.49-4.58,13.77-11.73,13.77s-11.26-4.14-11.26-13.68V26Z"/><path class="cls-1" d="M320.18,26.43a45.44,45.44,0,0,1,8.13-.67c4.24,0,7.29.72,9.39,2.53a8.25,8.25,0,0,1,2.68,6.51,8.58,8.58,0,0,1-5.64,8.12v.13c2.32.86,3.63,3.07,4.39,6.42.92,4,1.77,7.65,2.38,8.86h-5.84a42.34,42.34,0,0,1-2-7.7c-.84-4.22-2.27-5.58-5.39-5.64h-2.43V58.33h-5.64Zm5.64,14.34h2.84c3.74,0,6-2.2,6-5.43,0-3.43-2.12-5.22-5.8-5.25a13,13,0,0,0-3.08.27Z"/><path class="cls-1" d="M351.15,30.86h-8.21V26H365.1v4.88h-8.28V58.33h-5.67Z"/><path class="cls-1" d="M368.76,26h5.67V53.56h11.91v4.77H368.76Z"/><path class="cls-1" d="M396.64,49.4l-2.45,8.93h-5.77L397.85,26h7.06l9.37,32.35h-5.95l-2.56-8.93Zm8.28-4.33-2.19-7.81c-.55-2-1.05-4.47-1.5-6.47h-.11c-.44,2-.93,4.51-1.45,6.46l-2.17,7.82Z"/><path class="cls-1" d="M418.58,26.43a45.4,45.4,0,0,1,8.12-.67c4.25,0,7.3.72,9.39,2.53a8.22,8.22,0,0,1,2.69,6.51,8.57,8.57,0,0,1-5.65,8.12v.13c2.33.86,3.64,3.07,4.4,6.42.92,4,1.77,7.65,2.38,8.86h-5.85a43.55,43.55,0,0,1-2-7.7c-.84-4.22-2.27-5.58-5.39-5.64h-2.44V58.33h-5.63Zm5.63,14.34h2.85c3.73,0,6-2.2,6-5.43,0-3.43-2.12-5.22-5.8-5.25a13.1,13.1,0,0,0-3.09.27Z"/><path class="cls-1" d="M208.89,102.94c-.19-4-.4-8.85-.36-13h-.14c-.94,3.84-2.14,8.08-3.36,11.87l-4.32,13.75h-4.24l-4-13.51c-1.13-3.89-2.21-8.17-3-12.11h-.12c-.11,4.07-.31,9-.54,13.2l-.67,12.8H183l2.15-32.35h7.07l3.89,13c1.11,3.93,2.08,7.64,2.81,11.26h.14c.77-3.56,1.77-7.35,2.92-11.27l4.06-13h7L215,115.93h-5.43Z"/><path class="cls-1" d="M226.2,83.58v19.6c0,6,2.33,8.56,5.74,8.56,3.64,0,5.89-2.54,5.89-8.56V83.58h5.68v19.07c0,9.49-4.58,13.77-11.73,13.77-7,0-11.26-4.14-11.26-13.68V83.58Zm-1.38-4.91a2.78,2.78,0,0,1,2.78-2.84,2.84,2.84,0,0,1,0,5.68A2.78,2.78,0,0,1,224.82,78.67Zm9.16,0a2.76,2.76,0,0,1,2.76-2.84,2.84,2.84,0,0,1,0,5.68A2.75,2.75,0,0,1,234,78.67Z"/><path class="cls-1" d="M255.54,83.58V96.65h11.88V83.58h5.67v32.35h-5.67V101.66H255.54v14.27h-5.68V83.58Z"/><path class="cls-1" d="M296.05,101.46H285.2v9.73h12.16v4.74H279.53V83.58h17.16v4.73H285.2V96.8h10.85Z"/><path class="cls-1" d="M302.23,115.93V83.58h6.15l7.47,13.86a100.31,100.31,0,0,1,5,10.67l.11,0c-.37-4.26-.54-8.67-.54-13.87V83.58h5.19v32.35h-5.71l-7.55-14.09a107.27,107.27,0,0,1-5.13-10.9l-.13,0c.23,4.06.34,8.43.34,14.16v10.81Z"/><path class="cls-1" d="M332,84a47.79,47.79,0,0,1,8.32-.67c5.38,0,9.07,1.15,11.74,3.42,3,2.49,4.83,6.47,4.83,12.25,0,6.14-1.91,10.45-4.79,13.12s-7.45,4.07-13.09,4.07a53.85,53.85,0,0,1-7-.4Zm5.66,27.52a16.89,16.89,0,0,0,2.68.14c6.43,0,10.59-3.84,10.59-12.53,0-7.2-3.48-11.35-10-11.35a15.7,15.7,0,0,0-3.26.29Z"/><path class="cls-1" d="M361.94,78.87a2.43,2.43,0,0,1,2.4-2.4,2.39,2.39,0,0,1,2.3,2.4,2.35,2.35,0,1,1-4.7,0Zm4.41,4.71v32.35h-4.17V83.58Z"/><path class="cls-1" d="M372.92,109.78a14.73,14.73,0,0,0,7,1.83c3.59,0,5.58-1.8,5.58-4.44s-1.62-3.94-5.28-5.53c-4.82-2-8-5-8-9.29,0-5.22,4.13-9.21,10.85-9.21A15,15,0,0,1,390,84.61l-1.27,4.66A11.9,11.9,0,0,0,383,87.86c-3.5,0-5,2-5,3.91,0,2.49,1.7,3.64,5.71,5.44,5.17,2.3,7.55,5.21,7.55,9.51,0,5.38-4,9.65-11.57,9.65a17,17,0,0,1-7.88-1.84Z"/><path class="cls-1" d="M396.12,83.58h5.67v27.58H413.7v4.77H396.12Z"/><path class="cls-1" d="M418.09,78.87a2.44,2.44,0,0,1,2.4-2.4,2.39,2.39,0,0,1,2.31,2.4,2.36,2.36,0,1,1-4.71,0Zm4.42,4.71v32.35h-4.18V83.58Z"/><path class="cls-1" d="M429.38,83.58H435v14.9h.13c.72-1.28,1.47-2.5,2.18-3.67l7.46-11.23h6.79L441.51,97.4l10.63,18.53h-6.52l-8.08-14.68L435,104.52v11.41h-5.64Z"/></g></g></svg>